<mxfile host="Electron" agent="Mozilla/5.0 (Windows NT 10.0; Win64; x64) AppleWebKit/537.36 (KHTML, like Gecko) draw.io/26.0.4 Chrome/128.0.6613.186 Electron/32.2.5 Safari/537.36" version="26.0.4" pages="2">
  <diagram name="event-storming-template" id="QhEc1Krkfe7xor4PpbSW">
    <mxGraphModel dx="2582" dy="1509" grid="1" gridSize="10" guides="1" tooltips="1" connect="1" arrows="1" fold="1" page="1" pageScale="1" pageWidth="1169" pageHeight="827" math="0" shadow="0">
      <root>
        <mxCell id="0" />
        <mxCell id="1" parent="0" />
        <mxCell id="ydb_R_HOTPksUtLTfwGU-9" value="event" style="shape=partialRectangle;whiteSpace=wrap;html=1;bottom=0;right=0;fillColor=#FFB570;fontFamily=Comic Sans MS;fontSize=14;spacing=0;sketch=1;curveFitting=1;jiggle=2;fillStyle=solid;verticalAlign=top;align=left;spacingLeft=4;spacingRight=2;" vertex="1" parent="1">
          <mxGeometry x="351" y="50" width="90" height="90" as="geometry" />
        </mxCell>
        <mxCell id="ydb_R_HOTPksUtLTfwGU-10" value="policy" style="shape=partialRectangle;whiteSpace=wrap;html=1;bottom=0;right=0;fillColor=#E692C7;fontFamily=Comic Sans MS;fontSize=14;spacing=0;sketch=1;curveFitting=1;jiggle=2;fillStyle=solid;" vertex="1" parent="1">
          <mxGeometry x="540" y="50" width="90" height="90" as="geometry" />
        </mxCell>
        <mxCell id="ydb_R_HOTPksUtLTfwGU-11" value="event generating system" style="shape=partialRectangle;whiteSpace=wrap;html=1;bottom=0;right=0;fillColor=#F8CECC;fontFamily=Comic Sans MS;fontSize=14;spacing=0;sketch=1;curveFitting=1;jiggle=2;fillStyle=solid;" vertex="1" parent="1">
          <mxGeometry x="230" y="50" width="90" height="90" as="geometry" />
        </mxCell>
        <mxCell id="ydb_R_HOTPksUtLTfwGU-12" value="command" style="shape=partialRectangle;whiteSpace=wrap;html=1;bottom=0;right=0;fillColor=#DAE8FC;fontFamily=Comic Sans MS;fontSize=14;spacing=0;sketch=1;curveFitting=1;jiggle=2;fillStyle=solid;" vertex="1" parent="1">
          <mxGeometry x="125" y="50" width="90" height="90" as="geometry" />
        </mxCell>
        <mxCell id="ydb_R_HOTPksUtLTfwGU-13" value="aggregate" style="shape=partialRectangle;whiteSpace=wrap;html=1;bottom=0;right=0;fillColor=#FFF2CC;fontFamily=Comic Sans MS;fontSize=14;spacing=0;sketch=1;curveFitting=1;jiggle=2;fillStyle=solid;" vertex="1" parent="1">
          <mxGeometry x="230" y="146" width="210" height="69" as="geometry" />
        </mxCell>
        <mxCell id="ydb_R_HOTPksUtLTfwGU-14" value="command parmeters" style="shape=partialRectangle;whiteSpace=wrap;html=1;bottom=0;right=0;fillColor=#00CF00;fontFamily=Comic Sans MS;fontSize=14;spacing=0;sketch=1;curveFitting=1;jiggle=2;fillStyle=solid;" vertex="1" parent="1">
          <mxGeometry x="90" y="134" width="90" height="46" as="geometry" />
        </mxCell>
        <mxCell id="ydb_R_HOTPksUtLTfwGU-15" value="actor" style="shape=partialRectangle;whiteSpace=wrap;html=1;bottom=0;right=0;fillColor=#FFFF66;fontFamily=Comic Sans MS;fontSize=14;spacing=0;sketch=1;curveFitting=1;jiggle=2;fillStyle=solid;" vertex="1" parent="1">
          <mxGeometry x="60" y="180" width="90" height="46" as="geometry" />
        </mxCell>
        <mxCell id="ydb_R_HOTPksUtLTfwGU-16" value="isRunning" style="shape=partialRectangle;whiteSpace=wrap;html=1;left=0;right=0;fillColor=#E692C7;sketch=1;fillStyle=solid;fontFamily=Comic Sans MS;fontSize=14;strokeColor=none;rotation=0;align=left;spacing=0;spacingLeft=4;gradientColor=#FFFFFF;gradientDirection=east;" vertex="1" parent="1">
          <mxGeometry x="620" y="60" width="80" height="30" as="geometry" />
        </mxCell>
        <mxCell id="ydb_R_HOTPksUtLTfwGU-17" value="triggeredAt" style="shape=partialRectangle;whiteSpace=wrap;html=1;left=0;right=0;fillColor=#FFB570;sketch=1;fillStyle=solid;fontFamily=Comic Sans MS;fontSize=14;strokeColor=none;rotation=0;align=left;spacing=0;spacingLeft=4;gradientColor=#FFFFFF;gradientDirection=east;" vertex="1" parent="1">
          <mxGeometry x="410" y="80" width="87.29" height="30" as="geometry" />
        </mxCell>
        <mxCell id="ydb_R_HOTPksUtLTfwGU-18" value="event" style="shape=partialRectangle;whiteSpace=wrap;html=1;bottom=0;right=0;fillColor=#FFB570;fontFamily=Comic Sans MS;fontSize=14;spacing=0;sketch=1;curveFitting=1;jiggle=2;fillStyle=solid;verticalAlign=top;align=left;spacingLeft=4;spacingRight=2;" vertex="1" parent="1">
          <mxGeometry x="351" y="330" width="90" height="90" as="geometry" />
        </mxCell>
        <mxCell id="ydb_R_HOTPksUtLTfwGU-19" value="Command" style="shape=partialRectangle;whiteSpace=wrap;html=1;bottom=0;right=0;fillColor=#DAE8FC;fontFamily=Comic Sans MS;fontSize=14;spacing=0;sketch=1;curveFitting=1;jiggle=2;fillStyle=solid;verticalAlign=top;" vertex="1" parent="1">
          <mxGeometry x="101" y="330" width="90" height="90" as="geometry" />
        </mxCell>
        <mxCell id="ydb_R_HOTPksUtLTfwGU-20" value="Policy&lt;br&gt;isOne...Ok&lt;br&gt;isTwo...Ok" style="shape=partialRectangle;whiteSpace=wrap;html=1;bottom=0;right=0;fillColor=none;fontFamily=Comic Sans MS;fontSize=14;spacing=0;sketch=1;curveFitting=1;jiggle=2;fillStyle=solid;verticalAlign=top;spacingLeft=3;spacingRight=3;align=left;" vertex="1" parent="1">
          <mxGeometry x="471" y="330" width="90" height="90" as="geometry" />
        </mxCell>
        <mxCell id="ydb_R_HOTPksUtLTfwGU-21" value="&lt;p style=&quot;line-height: 120%; font-size: 12px;&quot;&gt;Notes&lt;br style=&quot;font-size: 12px;&quot;&gt;&lt;/p&gt;" style="shape=partialRectangle;whiteSpace=wrap;html=1;bottom=0;right=0;fillColor=#FFFF99;fontFamily=Courier New;fontSize=12;spacing=0;sketch=1;curveFitting=1;jiggle=2;fillStyle=solid;verticalAlign=middle;align=left;spacingLeft=2;spacingRight=0;strokeColor=none;opacity=60;" vertex="1" parent="1">
          <mxGeometry x="551" y="365" width="86" height="20" as="geometry" />
        </mxCell>
        <mxCell id="ydb_R_HOTPksUtLTfwGU-22" value="Command Processor" style="ellipse;whiteSpace=wrap;html=1;aspect=fixed;sketch=1;sketchStyle=rough;fontFamily=Comic Sans MS;fontSize=14;fontColor=#000000;fillColor=none;gradientColor=#FFFFFF;gradientDirection=east;spacing=0;spacingLeft=4;verticalAlign=middle;align=center;spacingRight=4;" vertex="1" parent="1">
          <mxGeometry x="231" y="335.25" width="79.5" height="79.5" as="geometry" />
        </mxCell>
        <mxCell id="ydb_R_HOTPksUtLTfwGU-23" value="Policy Engine" style="ellipse;whiteSpace=wrap;html=1;aspect=fixed;" vertex="1" parent="1">
          <mxGeometry x="501" y="548" width="80" height="80" as="geometry" />
        </mxCell>
        <mxCell id="ydb_R_HOTPksUtLTfwGU-24" value="" style="endArrow=open;html=1;endFill=0;entryX=0.5;entryY=0;entryDx=0;entryDy=0;curved=1;" edge="1" parent="1" target="ydb_R_HOTPksUtLTfwGU-23">
          <mxGeometry width="50" height="50" relative="1" as="geometry">
            <mxPoint x="311" y="548" as="sourcePoint" />
            <mxPoint x="331" y="578" as="targetPoint" />
            <Array as="points">
              <mxPoint x="461" y="458" />
            </Array>
          </mxGeometry>
        </mxCell>
        <mxCell id="ydb_R_HOTPksUtLTfwGU-25" value="event" style="edgeLabel;html=1;align=center;verticalAlign=middle;resizable=0;points=[];" vertex="1" connectable="0" parent="ydb_R_HOTPksUtLTfwGU-24">
          <mxGeometry x="-0.0616" y="-22" relative="1" as="geometry">
            <mxPoint as="offset" />
          </mxGeometry>
        </mxCell>
        <mxCell id="ydb_R_HOTPksUtLTfwGU-26" value="policy" style="edgeLabel;html=1;align=center;verticalAlign=middle;resizable=0;points=[];" vertex="1" connectable="0" parent="1">
          <mxGeometry x="435.1845575710681" y="686.6547354429335" as="geometry" />
        </mxCell>
        <mxCell id="ydb_R_HOTPksUtLTfwGU-27" value="" style="endArrow=open;html=1;endFill=0;curved=1;exitX=1;exitY=0.5;exitDx=0;exitDy=0;" edge="1" parent="1" source="ydb_R_HOTPksUtLTfwGU-23">
          <mxGeometry width="50" height="50" relative="1" as="geometry">
            <mxPoint x="601" y="608" as="sourcePoint" />
            <mxPoint x="691" y="578" as="targetPoint" />
            <Array as="points">
              <mxPoint x="641" y="598" />
            </Array>
          </mxGeometry>
        </mxCell>
        <mxCell id="ydb_R_HOTPksUtLTfwGU-28" value="outcome" style="edgeLabel;html=1;align=center;verticalAlign=middle;resizable=0;points=[];" vertex="1" connectable="0" parent="ydb_R_HOTPksUtLTfwGU-27">
          <mxGeometry x="-0.0616" y="-22" relative="1" as="geometry">
            <mxPoint as="offset" />
          </mxGeometry>
        </mxCell>
      </root>
    </mxGraphModel>
  </diagram>
  <diagram id="HhTKOoOQe6lT2x7n_q6z" name="Page-2">
    <mxGraphModel dx="1420" dy="830" grid="1" gridSize="10" guides="1" tooltips="1" connect="1" arrows="1" fold="1" page="1" pageScale="1" pageWidth="1169" pageHeight="827" math="0" shadow="0">
      <root>
        <mxCell id="0" />
        <mxCell id="1" parent="0" />
        <mxCell id="JzG8Vh2MZnd2dXseYzfl-1" value="Policy Engine" style="ellipse;whiteSpace=wrap;html=1;aspect=fixed;" vertex="1" parent="1">
          <mxGeometry x="501" y="548" width="80" height="80" as="geometry" />
        </mxCell>
        <mxCell id="JzG8Vh2MZnd2dXseYzfl-4" value="" style="endArrow=open;html=1;endFill=0;curved=1;exitX=1;exitY=0.5;exitDx=0;exitDy=0;" edge="1" parent="1" source="JzG8Vh2MZnd2dXseYzfl-1">
          <mxGeometry width="50" height="50" relative="1" as="geometry">
            <mxPoint x="601" y="608" as="sourcePoint" />
            <mxPoint x="691" y="578" as="targetPoint" />
            <Array as="points">
              <mxPoint x="641" y="598" />
            </Array>
          </mxGeometry>
        </mxCell>
        <mxCell id="JzG8Vh2MZnd2dXseYzfl-5" value="outcome" style="edgeLabel;html=1;align=center;verticalAlign=middle;resizable=0;points=[];" vertex="1" connectable="0" parent="JzG8Vh2MZnd2dXseYzfl-4">
          <mxGeometry x="-0.0616" y="-22" relative="1" as="geometry">
            <mxPoint x="9" y="-31" as="offset" />
          </mxGeometry>
        </mxCell>
        <mxCell id="JzG8Vh2MZnd2dXseYzfl-6" value="" style="endArrow=open;html=1;endFill=0;curved=1;entryX=0;entryY=0;entryDx=0;entryDy=0;" edge="1" parent="1" target="JzG8Vh2MZnd2dXseYzfl-1">
          <mxGeometry width="50" height="50" relative="1" as="geometry">
            <mxPoint x="340" y="470" as="sourcePoint" />
            <mxPoint x="701" y="588" as="targetPoint" />
            <Array as="points">
              <mxPoint x="380" y="530" />
            </Array>
          </mxGeometry>
        </mxCell>
        <mxCell id="JzG8Vh2MZnd2dXseYzfl-7" value="event" style="edgeLabel;html=1;align=center;verticalAlign=middle;resizable=0;points=[];" vertex="1" connectable="0" parent="JzG8Vh2MZnd2dXseYzfl-6">
          <mxGeometry x="-0.0616" y="-22" relative="1" as="geometry">
            <mxPoint x="10" y="-37" as="offset" />
          </mxGeometry>
        </mxCell>
        <mxCell id="JzG8Vh2MZnd2dXseYzfl-8" value="" style="endArrow=open;html=1;endFill=0;curved=1;entryX=0;entryY=1;entryDx=0;entryDy=0;" edge="1" parent="1" target="JzG8Vh2MZnd2dXseYzfl-1">
          <mxGeometry width="50" height="50" relative="1" as="geometry">
            <mxPoint x="290" y="690" as="sourcePoint" />
            <mxPoint x="473" y="633" as="targetPoint" />
            <Array as="points">
              <mxPoint x="340" y="603" />
            </Array>
          </mxGeometry>
        </mxCell>
        <mxCell id="JzG8Vh2MZnd2dXseYzfl-9" value="policy" style="edgeLabel;html=1;align=center;verticalAlign=middle;resizable=0;points=[];" vertex="1" connectable="0" parent="JzG8Vh2MZnd2dXseYzfl-8">
          <mxGeometry x="-0.0616" y="-22" relative="1" as="geometry">
            <mxPoint x="24" y="-7" as="offset" />
          </mxGeometry>
        </mxCell>
        <mxCell id="JzG8Vh2MZnd2dXseYzfl-10" value="Git Repository" style="rounded=0;whiteSpace=wrap;html=1;sketch=1;hachureGap=4;jiggle=2;curveFitting=1;fontFamily=Architects Daughter;fontSource=https%3A%2F%2Ffonts.googleapis.com%2Fcss%3Ffamily%3DArchitects%2BDaughter;disableMultiStroke=1;disableMultiStrokeFill=1;" vertex="1" parent="1">
          <mxGeometry x="481" y="210" width="120" height="60" as="geometry" />
        </mxCell>
        <mxCell id="JzG8Vh2MZnd2dXseYzfl-11" value="Git Repository" style="rounded=0;whiteSpace=wrap;html=1;sketch=1;hachureGap=4;jiggle=2;curveFitting=1;fontFamily=Architects Daughter;fontSource=https%3A%2F%2Ffonts.googleapis.com%2Fcss%3Ffamily%3DArchitects%2BDaughter;disableMultiStroke=1;disableMultiStrokeFill=1;" vertex="1" parent="1">
          <mxGeometry x="491" y="220" width="120" height="60" as="geometry" />
        </mxCell>
        <mxCell id="JzG8Vh2MZnd2dXseYzfl-12" value="Git Repository" style="rounded=0;whiteSpace=wrap;html=1;sketch=1;hachureGap=4;jiggle=2;curveFitting=1;fontFamily=Architects Daughter;fontSource=https%3A%2F%2Ffonts.googleapis.com%2Fcss%3Ffamily%3DArchitects%2BDaughter;disableMultiStroke=1;disableMultiStrokeFill=1;" vertex="1" parent="1">
          <mxGeometry x="501" y="230" width="120" height="60" as="geometry" />
        </mxCell>
        <mxCell id="JzG8Vh2MZnd2dXseYzfl-14" value="" style="strokeColor=#dddddd;shadow=1;strokeWidth=1;rounded=1;absoluteArcSize=1;arcSize=2;sketch=1;hachureGap=4;jiggle=2;curveFitting=1;fontFamily=Architects Daughter;fontSource=https%3A%2F%2Ffonts.googleapis.com%2Fcss%3Ffamily%3DArchitects%2BDaughter;fontSize=12;verticalAlign=top;align=center;spacing=1;" vertex="1" parent="1">
          <mxGeometry x="930" y="190" width="110" height="100" as="geometry" />
        </mxCell>
        <mxCell id="IDQI1LhtvQsxpLkv0eon-1" value="" style="endArrow=open;html=1;endFill=0;curved=1;entryX=1;entryY=0.5;entryDx=0;entryDy=0;" edge="1" parent="1" source="IDQI1LhtvQsxpLkv0eon-4" target="JzG8Vh2MZnd2dXseYzfl-12">
          <mxGeometry width="50" height="50" relative="1" as="geometry">
            <mxPoint x="680" y="324" as="sourcePoint" />
            <mxPoint x="853" y="414" as="targetPoint" />
            <Array as="points">
              <mxPoint x="830" y="250" />
              <mxPoint x="730" y="330" />
            </Array>
          </mxGeometry>
        </mxCell>
        <mxCell id="IDQI1LhtvQsxpLkv0eon-2" value="link" style="edgeLabel;html=1;align=center;verticalAlign=middle;resizable=0;points=[];" vertex="1" connectable="0" parent="IDQI1LhtvQsxpLkv0eon-1">
          <mxGeometry x="-0.0616" y="-22" relative="1" as="geometry">
            <mxPoint x="44" y="7" as="offset" />
          </mxGeometry>
        </mxCell>
        <mxCell id="IDQI1LhtvQsxpLkv0eon-4" value="" style="shape=image;verticalLabelPosition=bottom;labelBackgroundColor=default;verticalAlign=top;aspect=fixed;imageAspect=0;image=data:image/svg+xml,PHN2ZyB4bWxucz0iaHR0cDovL3d3dy53My5vcmcvMjAwMC9zdmciIHhtbDpzcGFjZT0icHJlc2VydmUiIGlkPSJzdmc1IiB2ZXJzaW9uPSIxLjEiIHZpZXdCb3g9IjAgMCAxNC41NzE4MzYgMjAuODM2NjYyIiBoZWlnaHQ9IjU5Ljk5OTcyMiIgd2lkdGg9IjQxLjk1OTk5OSI+PGRlZnMgaWQ9ImRlZnMyIi8+PGcgdHJhbnNmb3JtPSJ0cmFuc2xhdGUoLTE0Ny43MDUxMywtMTk1Ljk3ODI3KSIgaWQ9ImxheWVyMSI+PGcgdHJhbnNmb3JtPSJtYXRyaXgoMC41NTQyMjI2NSwwLDAsMC41MzY4MDcwNSw4My4yMzM4ODIsOTAuNTkwODA1KSIgc3R5bGU9ImZpbGw6I2ZmZmZmZiIgaWQ9ImcxNjczIi8+PHBhdGggZD0ibSAxNDguMTQ3MzgsMjE2LjE5OSAtMC4yMDYyNywtMC4yOTU3MSB2IC05LjUyMDU0IC05LjUyMDU1IGwgMC4yMDYyNywtMC4yOTU3MSAwLjIwNjI2LC0wLjI5NTcxIGggNC4wMzExMiA0LjAzMTExIGwgMC4wMzU4LDIuNzYwODMgMC4wMzU4LDIuNzYwODMgMi43NDk0MSwwLjAzNiAyLjc0OTQyLDAuMDM1OSB2IDcuMDE5NDUgNy4wMTk0NyBsIC0wLjIwNjI2LDAuMjk1NzEgLTAuMjA2MjYsMC4yOTU3MSBoIC02LjYxMDA4IC02LjYxMDA5IHogbSAyLjkxMzU2LC0yLjE1OTcxIDAuMzI1MjMsLTAuMzI2NTggdiAtMC4zODcyNiAtMC4zODcyNiBsIC0wLjI3NDYyLC0wLjM1MDU4IC0wLjI3NDYyLC0wLjM1MDU2IGggLTAuNTc3MDMgLTAuNTc3MDMgbCAtMC4yNzQ2MiwwLjM1MDU2IC0wLjI3NDYyLDAuMzUwNTggdiAwLjM4NzI2IDAuMzg3MjYgbCAwLjMyNTIzLDAuMzI2NTggMC4zMjUyNCwwLjMyNjU5IGggMC40NzU4IDAuNDc1ODEgeiBtIC0wLjg2NzMsLTAuNzM3ODMgdiAtMC4xNzc0MSBsIDAuMDg4NCwwLjA4ODggMC4wODgzLDAuMDg4NyAtMC4wODgzLDAuMDg4OCAtMC4wODg0LDAuMDg4NyB6IG0gMTAuMzQzODksMC4zOTQ0OCAwLjI1NjI5LC0wLjEzNzc0IHYgLTAuMjM0ODEgLTAuMjM0ODIgbCAtMC4xNTksLTAuMTU5NjUgLTAuMTU5MDEsLTAuMTU5NjcgaCAtMy44NzE0NyAtMy44NzE0OCBsIC0wLjIwOTU4LDAuMDgwOCAtMC4yMDk2LDAuMDgwOCB2IDAuMzczODQgMC4zNzM4MyBsIDAuMTY1NjMsMC4wNjcxIDAuMTY1NjIsMC4wNjcxIDMuODE4MTYsMC4wMTA1IDMuODE4MTQsMC4wMTA1IDAuMjU2MywtMC4xMzc3MiB6IG0gLTcuODI2MzQsLTAuMzk0NDggdiAtMC4xMzMwNSBoIDMuODUwMzggMy44NTAzOCBsIC0wLjA4MTksMC4xMzMwNSAtMC4wODE5LDAuMTMzMDUgaCAtMy43Njg0OSAtMy43Njg0OSB6IG0gLTEuNjUwMjUsLTIuOTg3NjIgMC4zMjUyMywtMC4zMjY1OSB2IC0wLjQ3MTczIC0wLjQ3MTczIGwgLTAuMjYxNjQsLTAuMjYyNzIgLTAuMjYxNjMsLTAuMjYyNzIgLTAuMzU4NTcsLTAuMDkwMyAtMC4zNTg1NywtMC4wOTAzIC0wLjMzNzE5LDAuMTkwMDQgLTAuMzM3MTcsMC4xOTAwNCAtMC4xODkyNiwwLjMzODU5IC0wLjE4OTI1LDAuMzM4NTggMC4wOSwwLjM2MDA2IDAuMDksMC4zNjAwNiAwLjI2MTYyLDAuMjYyNzEgMC4yNjE2NCwwLjI2MjcyIGggMC40Njk3OCAwLjQ2OTc5IHogbSAtMC44NjczLC0wLjczNzg0IHYgLTAuMTMzMDUgaCAwLjE0MDMzIDAuMTQwMzIgbCAtMC4wODE5LDAuMTMzMDUgLTAuMDgxOSwwLjEzMzA1IGggLTAuMDU4NCAtMC4wNTg0IHogbSAxMC41MzU5NSwwLjEyNjY2IDAuMDg2MiwtMC4yNzI0OCAtMC4xNjEyNSwtMC4xOTUxIC0wLjE2MTI0LC0wLjE5NTA4IC00LjA1NDg3LDAuMDM1MiAtNC4wNTQ4OCwwLjAzNTIgLTAuMDQ2MSwwLjI0MDYyIC0wLjA0NjEsMC4yNDA2IDAuMDczMywwLjE5MTgxIDAuMDczMywwLjE5MTggaCA0LjEwMjggNC4xMDI4IHogbSAtNy45NTIxNiwtMC4xMjY2NiAtMC4wODE5LC0wLjEzMzA1IDMuODgzNTEsMC4wMDIgMy44ODM1LDAuMDAyIC0wLjE5ODc0LDAuMTI4OTggLTAuMTk4NzYsMC4xMjg5OCAtMy42MDI4NywwLjAwMiAtMy42MDI4NSwwLjAwMiB6IG0gLTEuNzc4NTgsLTMuMDQ5OTcgMC4zODczMiwtMC4zODg5MiB2IC0wLjQxNTQ0IC0wLjQxNTQ0IGwgLTAuMzI1MjMsLTAuMzI2NTggLTAuMzI1MjMsLTAuMzI2NTggaCAtMC4zMzEwNSAtMC4zMzEwNSBsIC0wLjMyMjg3LDAuMTQ3NzIgLTAuMzIyODksMC4xNDc3MyAtMC4xNDcxLDAuMzI0MjIgLTAuMTQ3MTIsMC4zMjQyMSB2IDAuMjMwMjQgMC4yMzAyNCBsIDAuMjEyOTMsMC4zMDUyNiAwLjIxMjkzLDAuMzA1MjcgMC4yODM5NSwwLjExNTA2IDAuMjgzOTYsMC4xMTUwNyAwLjI0MjA2LDAuMDA4IDAuMjQyMDcsMC4wMDggeiBtIC0wLjgwNTIxLC0wLjc0MiB2IC0wLjA2NjYgaCAwLjA2NjMgMC4wNjYzIHYgMC4wNjY2IDAuMDY2NiBoIC0wLjA2NjMgLTAuMDY2MyB6IG0gMTAuNDYyNCwwLjI3MjQ4IDAuMTU5NjgsLTAuMTkzMTkgLTAuMDg2NywtMC4yNzQzNyAtMC4wODY3LC0wLjI3NDM3IC00LjEyOTQxLDAuMDM1MiAtNC4xMjkzOSwwLjAzNTIgLTAuMDQ2MSwwLjI0MDYxIC0wLjA0NjEsMC4yNDA2MiAwLjA3MzMsMC4xOTE4MSAwLjA3MzMsMC4xOTE4IGggNC4wMjkyNSA0LjAyOTI1IHogbSAtNi4wNTY3LC0wLjMwNTQ2IDEuOTU0NDEsLTAuMDQwNyAxLjk1NDQxLDAuMDQwNyAxLjk1NDQsMC4wNDA3IGggLTMuOTA4ODEgLTMuOTA4ODIgeiBtIDcuMDQ0OSwtNC41MDUwNCAwLjIwOTYsLTAuMDgwOCB2IC0wLjE1MDY1IC0wLjE1MDY2IGwgLTIuMjE3OTUsLTIuMjMwMDQgLTIuMjE3OTUsLTIuMjMwMDYgaCAtMC4yMzMzNCAtMC4yMzMzNCB2IDIuMzgzODUgMi4zODM4NiBsIDAuMTY1NjIsMC4wNjcxIDAuMTY1NjQsMC4wNjcxIDIuMDc2MDcsMC4wMTA1IDIuMDc2MDcsMC4wMTA1IHogbSAtNC4yOTU0OCwtMi4zNDU2NiB2IC0xLjg5NDIgbCAxLjg1NTAzLDEuODU5MTYgMS44NTUwNCwxLjg1OTE3IHYgMC4wMzUxIDAuMDM1MSBoIC0xLjg1NTA0IC0xLjg1NTAzIHogbSAtOC4wNDI5NCwtMC42NDQxOSAwLjAwOCwtMC4wMTMzIDAuMDEzNSwtMC4zMjE5MiAwLjAxMzUsLTAuMzIxOTEgMC4wMDksLTAuMTU0MzkgMC4wMDksLTAuMTU0NCAwLjA0MiwwLjA4OTUgMC4wNDIsMC4wODk1IDAuMTM1ODYsMC4zMDI3NyAwLjEzNTg1LDAuMzAyNzcgMC4wODU4LDAuMDA0IDAuMDg1OCwwLjAwNCAwLjA0MjQsLTAuMDk4IDAuMDQyNCwtMC4wOTgxIDAuMTI3MTcsLTAuMjg1MTQgMC4xMjcxOCwtMC4yODUxNCAwLjAxLDAuMDE4NCAwLjAxLDAuMDE4NCAwLjAxNjksMC4zMzg4MSAwLjAxNjksMC4zMzg4MiAwLjAwOSwwLjExNTM0IDAuMDA5LDAuMTE1MzQgMC4wOTQ0LDAuMDA0IDAuMDk0NCwwLjAwNCAwLjAwOSwtMC4wMjM5IDAuMDA5LC0wLjAyMzkgLTAuMDIzMywtMC40MTY5MSAtMC4wMjMzLC0wLjQxNjkyIC0wLjAyMTUsLTAuMjMzMTEgLTAuMDIxNSwtMC4yMzMxMSAtMC4wMDcsLTAuMDExNiAtMC4wMDcsLTAuMDExNiBoIC0wLjA5MDEgLTAuMDkwMSBsIC0wLjAyODgsMC4wNDY5IC0wLjAyODgsMC4wNDY5IC0wLjEzNjE1LDAuMjg4MzUgLTAuMTM2MTUsMC4yODgzNiAtMC4wMzkzLDAuMDk3MyAtMC4wMzkzLDAuMDk3MyAtMC4wMDgsLTIuN2UtNCAtMC4wMDgsLTIuN2UtNCAtMC4wNzYsLTAuMTc2MjYgLTAuMDc2LC0wLjE3NjI1IC0wLjEwMzU2LC0wLjIxNjI3IC0wLjEwMzU2LC0wLjIxNjI2IC0wLjAyNzYsLTAuMDQwMyAtMC4wMjc2LC0wLjA0MDMgLTAuMDkyOCwwLjAwNCAtMC4wOTI4LDAuMDA0IC0wLjAxNjIsMC4xNTEzNyAtMC4wMTYyLDAuMTUxMzkgLTAuMDIyOSwwLjMwOTk4IC0wLjAyMjksMC4zMDk5OCAtMC4wMTA2LDAuMjAxODQgLTAuMDEwNiwwLjIwMTg1IDAuMDEzMiwwLjAxOCAwLjAxMzIsMC4wMTgxIGggMC4wODgyIDAuMDg4MiB6IG0gLTAuMTU5NzUsLTAuMTQ5MTYgdiAtMC4xMTkxOSBsIDAuMDE0MSwtMC4yMzA0MyAwLjAxNDEsLTAuMjMwNDQgMC4wMjEyLC0wLjI0NTEgMC4wMjEyLC0wLjI0NTEgMC4wMDgsLTAuMDQ2OSAwLjAwOCwtMC4wNDY5IGggMC4wNjc2IDAuMDY3NiBsIDAuMTUzLDAuMzIwNzkgMC4xNTMwMSwwLjMyMDggMC4wNDMzLDAuMTA5NjEgMC4wNDM0LDAuMTA5NjEgMC4wMTk1LDAuMDI3MyAwLjAxOTUsMC4wMjczIDAuMDEzMywtMC4wMTQ0IDAuMDEzMywtMC4wMTQ1IDAuMDkzOCwtMC4yMTYyNiAwLjA5MzgsLTAuMjE2MjYgMC4xMTE2NSwtMC4yMjcwNyAwLjExMTYzLC0wLjIyNzA4IGggMC4wNjgyIDAuMDY4MiB2IDAuMDA0IDAuMDA0IGwgMC4wMjcxLDAuMzI0MTYgMC4wMjcyLDAuMzI0MTcgMC4wMTUxLDAuMjU5NTIgMC4wMTUsMC4yNTk1MiAwLjAwNSwwLjA1NDEgMC4wMDUsMC4wNTQxIGggLTAuMDY4MiAtMC4wNjgyIGwgLTAuMDA2LC0wLjAzMjUgLTAuMDA2LC0wLjAzMjQgLTAuMDE2NSwtMC40MDM2OSAtMC4wMTY1LC0wLjQwMzcgLTAuMDA5LC0wLjA2NDkgLTAuMDA5LC0wLjA2NDkgaCAtMC4wMjA5IC0wLjAyMDkgbCAtMC4wNjIxLDAuMTI5NzYgLTAuMDYyMSwwLjEyOTc2IC0wLjEyMTM1LDAuMjczOTQgLTAuMTIxMzcsMC4yNzM5MyAtMC4wNTc1LDAuMDA0IC0wLjA1NzUsMC4wMDQgLTAuMDQwMSwtMC4wOTEgLTAuMDQsLTAuMDkwOSAtMC4xMTQ4OSwtMC4yNTk1MiAtMC4xMTQ5MSwtMC4yNTk1MiAtMC4wMzQ0LC0wLjA2MTIgLTAuMDM0NCwtMC4wNjEyIGggLTAuMDE3NiAtMC4wMTc2IGwgLTAuMDA5LDAuMTA0NTYgLTAuMDA5LDAuMTA0NTYgLTAuMDE0OCwwLjI5NTU3IC0wLjAxNDgsMC4yOTU1NSAtMC4wMDgsMC4xMDQ1NiAtMC4wMDgsMC4xMDQ1NyBoIC0wLjA2MTYgLTAuMDYxNiB6IG0gMi4wNTQ5NiwwLjEzMTMxIDAuMDMwNSwtMC4wMTY3IDAuMTcwODQsLTAuMTc2ODcgMC4xNzA4MywtMC4xNzY4NyAwLjAxNDMsLTAuMDM5IDAuMDE0MywtMC4wMzkgLTAuMDA5LC0wLjAzMDYgLTAuMDA5LC0wLjAzMDYgLTAuMDI4OCwtMC4wMzI0IC0wLjAyODgsLTAuMDMyNSBoIC0wLjA1NDIgLTAuMDU0MiBsIC0wLjA3NTksMC4wNzQyIC0wLjA3NTksMC4wNzQyIHYgLTAuNDQyNDkgLTAuNDQyNDggbCAtMC4wMzQzLC0wLjAzNTQgLTAuMDM0MywtMC4wMzU0IGggLTAuMDU1MiAtMC4wNTUyIGwgLTAuMDM2MSwwLjA0NDQgLTAuMDM2MSwwLjA0NDQgdiAwLjQzNDU0IDAuNDM0NTMgbCAtMC4wNzM3LC0wLjA3NTEgLTAuMDczNywtMC4wNzUyIGggLTAuMDUyNSAtMC4wNTI1IGwgLTAuMDM0MywwLjAzNTQgLTAuMDM0MywwLjAzNTQgdiAwLjA1NDEgMC4wNTQyIGwgMC4xOTkzLDAuMjA2MDEgMC4xOTkzMiwwLjIwNiBoIDAuMDM4OCAwLjAzODggeiBtIC0wLjI3ODQzLC0wLjIxNzc1IC0wLjE4NjMsLTAuMTkxMjMgdiAtMC4wMzczIC0wLjAzNzMgbCAwLjAyNTUsLTAuMDIzOSAwLjAyNTUsLTAuMDIzOSBoIDAuMDMxNSAwLjAzMTUgbCAwLjA4NzIsMC4wODY2IDAuMDg3MiwwLjA4NjYgaCAwLjAxNjMgMC4wMTYyIHYgLTAuNDU4MTUgLTAuNDU4MTYgbCAwLjAyMTcsLTAuMDMyIDAuMDIxNywtMC4wMzIgaCAwLjAzODkgMC4wMzg5IGwgMC4wMjMxLDAuMDI2NCAwLjAyMzEsMC4wMjY0IHYgMC40NTU3NyAwLjQ1NTc3IGwgMC4wMTQ1LDAuMDA5IDAuMDE0NSwwLjAwOSAwLjA5MDcsLTAuMDg3NyAwLjA5MDcsLTAuMDg3NyBoIDAuMDI4MyAwLjAyODMgbCAwLjAyNywwLjAxNSAwLjAyNywwLjAxNSB2IDAuMDQ3IDAuMDQ3IGwgLTAuMTg2LDAuMTkwMzQgLTAuMTg1OTksMC4xOTAzNSBoIC0wLjAzMjMgLTAuMDMyMyB6IG0gMC41OTQ0NywwLjQ5NTE1IDAuMDgsLTAuMDMzNCAwLjA2NywtMC4wNjEzIDAuMDY3LC0wLjA2MTMgMC4wMjQ1LC0wLjA2NzMgMC4wMjQ1LC0wLjA2NzMgdiAtMC41ODk2NSAtMC41ODk2NSBsIC0wLjAxOTEsLTAuMDU0NSAtMC4wMTkxLC0wLjA1NDUgLTAuMDI3NCwtMC4wMzY3IC0wLjAyNzQsLTAuMDM2NyAtMC4wNDY5LC0wLjAzODggLTAuMDQ2OSwtMC4wMzg4IC0wLjA3ODEsLTAuMDMyOCAtMC4wNzgsLTAuMDMyNyBoIC0xLjA5MDYgLTEuMDkwNiBsIC0wLjA4MDcsMC4wMzM3IC0wLjA4MDcsMC4wMzM3IC0wLjA1MzgsMC4wNDU2IC0wLjA1MzgsMC4wNDU2IC0wLjAzNCwwLjA1ODYgLTAuMDM0LDAuMDU4NiAtMC4wMDQsMC42MTE4OSAtMC4wMDQsMC42MTE5IDAuMDE5MSwwLjA1NzQgMC4wMTkxLDAuMDU3NCAwLjA0MTYsMC4wNTIgMC4wNDE2LDAuMDUyIDAuMDUxMSwwLjAzMSAwLjA1MTEsMC4wMzA5IDAuMDM4OCwwLjAxNjkgMC4wMzg4LDAuMDE2OSAwLjA0NTYsMC4wMDkgMC4wNDU2LDAuMDA5IDEuMDY2MjcsLTAuMDAxIDEuMDY2MjcsLTAuMDAxIHoiIHN0eWxlPSJmaWxsOm5vbmU7c3Ryb2tlOiMwMDAwMDA7c3Ryb2tlLXdpZHRoOjAuMTMyNzc2IiBpZD0icGF0aDE2MDYiLz48L2c+PC9zdmc+;imageBackground=default;" vertex="1" parent="1">
          <mxGeometry x="950" y="210" width="42" height="60" as="geometry" />
        </mxCell>
        <mxCell id="IDQI1LhtvQsxpLkv0eon-9" value="&lt;span style=&quot;color: rgb(0, 0, 0); font-family: &amp;quot;Architects Daughter&amp;quot;; font-size: 12px; font-style: normal; font-variant-ligatures: normal; font-variant-caps: normal; font-weight: 400; letter-spacing: normal; orphans: 2; text-indent: 0px; text-transform: none; widows: 2; word-spacing: 0px; -webkit-text-stroke-width: 0px; white-space: nowrap; background-color: rgb(251, 251, 251); text-decoration-thickness: initial; text-decoration-style: initial; text-decoration-color: initial; float: none; display: inline !important;&quot;&gt;single view&lt;/span&gt;" style="text;whiteSpace=wrap;html=1;fontFamily=Architects Daughter;fontSource=https%3A%2F%2Ffonts.googleapis.com%2Fcss%3Ffamily%3DArchitects%2BDaughter;align=center;verticalAlign=middle;" vertex="1" parent="1">
          <mxGeometry x="955" y="180" width="60" height="20" as="geometry" />
        </mxCell>
      </root>
    </mxGraphModel>
  </diagram>
</mxfile>
